{
	"asset":{
		"generator":"Khronos glTF Blender I/O v4.5.47",
		"version":"2.0"
	},
	"extensionsUsed":[
		"KHR_materials_specular",
		"KHR_materials_ior"
	],
	"scene":0,
	"scenes":[
		{
			"name":"Scene",
			"nodes":[
				4
			]
		}
	],
	"nodes":[
		{
			"mesh":0,
			"name":"whell"
		},
		{
			"mesh":1,
			"name":"whell.001"
		},
		{
			"mesh":2,
			"name":"whell.002"
		},
		{
			"mesh":3,
			"name":"whell.003"
		},
		{
			"children":[
				0,
				1,
				2,
				3
			],
			"mesh":4,
			"name":"car2",
			"rotation":[
				-0.9865475296974182,
				0.09409883618354797,
				-0.040735241025686264,
				0.12731948494911194
			]
		}
	],
	"materials":[
		{
			"doubleSided":true,
			"extensions":{
				"KHR_materials_specular":{
					"specularColorFactor":[
						4.0,
						4.0,
						4.0
					]
				},
				"KHR_materials_ior":{
					"ior":1.4500000476837158
				}
			},
			"name":"Material.car2",
			"pbrMetallicRoughness":{
				"baseColorTexture":{
					"index":0
				},
				"roughnessFactor":0.5527864098548889
			}
		}
	],
	"meshes":[
		{
			"name":"car2.018",
			"primitives":[
				{
					"attributes":{
						"POSITION":0,
						"NORMAL":1,
						"TEXCOORD_0":2
					},
					"indices":3,
					"material":0
				}
			]
		},
		{
			"name":"car2.019",
			"primitives":[
				{
					"attributes":{
						"POSITION":4,
						"NORMAL":5,
						"TEXCOORD_0":6
					},
					"indices":7,
					"material":0
				}
			]
		},
		{
			"name":"car2.020",
			"primitives":[
				{
					"attributes":{
						"POSITION":8,
						"NORMAL":9,
						"TEXCOORD_0":10
					},
					"indices":11,
					"material":0
				}
			]
		},
		{
			"name":"car2.021",
			"primitives":[
				{
					"attributes":{
						"POSITION":12,
						"NORMAL":13,
						"TEXCOORD_0":14
					},
					"indices":15,
					"material":0
				}
			]
		},
		{
			"name":"car2.017",
			"primitives":[
				{
					"attributes":{
						"POSITION":16,
						"NORMAL":17,
						"TEXCOORD_0":18
					},
					"indices":19,
					"material":0
				}
			]
		}
	],
	"textures":[
		{
			"sampler":0,
			"source":0
		}
	],
	"images":[
		{
			"bufferView":4,
			"mimeType":"image/png",
			"name":"Car Texture 1"
		}
	],
	"accessors":[
		{
			"bufferView":0,
			"componentType":5126,
			"count":337,
			"max":[
				-0.9234839081764221,
				0.6109094619750977,
				-0.5183209776878357
			],
			"min":[
				-1.5343931913375854,
				-6.439146460479606e-08,
				-0.8641418814659119
			],
			"type":"VEC3"
		},
		{
			"bufferView":1,
			"componentType":5126,
			"count":337,
			"type":"VEC3"
		},
		{
			"bufferView":2,
			"componentType":5126,
			"count":337,
			"type":"VEC2"
		},
		{
			"bufferView":3,
			"componentType":5123,
			"count":954,
			"type":"SCALAR"
		},
		{
			"bufferView":5,
			"componentType":5126,
			"count":337,
			"max":[
				1.5343927145004272,
				0.6109094619750977,
				-0.5183218717575073
			],
			"min":[
				0.92348313331604,
				-6.439150013193284e-08,
				-0.8641428351402283
			],
			"type":"VEC3"
		},
		{
			"bufferView":6,
			"componentType":5126,
			"count":337,
			"type":"VEC3"
		},
		{
			"bufferView":7,
			"componentType":5126,
			"count":337,
			"type":"VEC2"
		},
		{
			"bufferView":8,
			"componentType":5123,
			"count":954,
			"type":"SCALAR"
		},
		{
			"bufferView":9,
			"componentType":5126,
			"count":337,
			"max":[
				1.5343929529190063,
				0.6109094619750977,
				0.8641421794891357
			],
			"min":[
				0.9234834909439087,
				9.282596025173007e-09,
				0.5183213353157043
			],
			"type":"VEC3"
		},
		{
			"bufferView":10,
			"componentType":5126,
			"count":337,
			"type":"VEC3"
		},
		{
			"bufferView":11,
			"componentType":5126,
			"count":337,
			"type":"VEC2"
		},
		{
			"bufferView":12,
			"componentType":5123,
			"count":954,
			"type":"SCALAR"
		},
		{
			"bufferView":13,
			"componentType":5126,
			"count":337,
			"max":[
				-0.9234835505485535,
				0.6109094619750977,
				0.8641424179077148
			],
			"min":[
				-1.5343929529190063,
				9.282603130600364e-09,
				0.5183215737342834
			],
			"type":"VEC3"
		},
		{
			"bufferView":14,
			"componentType":5126,
			"count":337,
			"type":"VEC3"
		},
		{
			"bufferView":15,
			"componentType":5126,
			"count":337,
			"type":"VEC2"
		},
		{
			"bufferView":16,
			"componentType":5123,
			"count":954,
			"type":"SCALAR"
		},
		{
			"bufferView":17,
			"componentType":5126,
			"count":2933,
			"max":[
				2.091134786605835,
				1.3013598918914795,
				0.9840434789657593
			],
			"min":[
				-1.8678845167160034,
				0.22120840847492218,
				-0.984043538570404
			],
			"type":"VEC3"
		},
		{
			"bufferView":18,
			"componentType":5126,
			"count":2933,
			"type":"VEC3"
		},
		{
			"bufferView":19,
			"componentType":5126,
			"count":2933,
			"type":"VEC2"
		},
		{
			"bufferView":20,
			"componentType":5123,
			"count":7578,
			"type":"SCALAR"
		}
	],
	"bufferViews":[
		{
			"buffer":0,
			"byteLength":4044,
			"byteOffset":0,
			"target":34962
		},
		{
			"buffer":0,
			"byteLength":4044,
			"byteOffset":4044,
			"target":34962
		},
		{
			"buffer":0,
			"byteLength":2696,
			"byteOffset":8088,
			"target":34962
		},
		{
			"buffer":0,
			"byteLength":1908,
			"byteOffset":10784,
			"target":34963
		},
		{
			"buffer":0,
			"byteLength":10710,
			"byteOffset":12692
		},
		{
			"buffer":0,
			"byteLength":4044,
			"byteOffset":23404,
			"target":34962
		},
		{
			"buffer":0,
			"byteLength":4044,
			"byteOffset":27448,
			"target":34962
		},
		{
			"buffer":0,
			"byteLength":2696,
			"byteOffset":31492,
			"target":34962
		},
		{
			"buffer":0,
			"byteLength":1908,
			"byteOffset":34188,
			"target":34963
		},
		{
			"buffer":0,
			"byteLength":4044,
			"byteOffset":36096,
			"target":34962
		},
		{
			"buffer":0,
			"byteLength":4044,
			"byteOffset":40140,
			"target":34962
		},
		{
			"buffer":0,
			"byteLength":2696,
			"byteOffset":44184,
			"target":34962
		},
		{
			"buffer":0,
			"byteLength":1908,
			"byteOffset":46880,
			"target":34963
		},
		{
			"buffer":0,
			"byteLength":4044,
			"byteOffset":48788,
			"target":34962
		},
		{
			"buffer":0,
			"byteLength":4044,
			"byteOffset":52832,
			"target":34962
		},
		{
			"buffer":0,
			"byteLength":2696,
			"byteOffset":56876,
			"target":34962
		},
		{
			"buffer":0,
			"byteLength":1908,
			"byteOffset":59572,
			"target":34963
		},
		{
			"buffer":0,
			"byteLength":35196,
			"byteOffset":61480,
			"target":34962
		},
		{
			"buffer":0,
			"byteLength":35196,
			"byteOffset":96676,
			"target":34962
		},
		{
			"buffer":0,
			"byteLength":23464,
			"byteOffset":131872,
			"target":34962
		},
		{
			"buffer":0,
			"byteLength":15156,
			"byteOffset":155336,
			"target":34963
		}
	],
	"samplers":[
		{
			"magFilter":9729,
			"minFilter":9987
		}
	],
	"buffers":[
		{
			"byteLength":170492,
			"uri":"data:application/octet-stream;base64,"
		}
	]
}
