{
	"asset":{
		"generator":"Khronos glTF Blender I/O v4.5.47",
		"version":"2.0"
	},
	"scene":0,
	"scenes":[
		{
			"name":"Scene",
			"nodes":[
				9
			]
		}
	],
	"nodes":[
		{
			"mesh":0,
			"name":"Cube.001",
			"rotation":[
				0,
				0,
				-0.3059329092502594,
				0.9520530700683594
			],
			"scale":[
				52.90359115600586,
				14.741861343383789,
				1.6039042472839355
			],
			"translation":[
				-1.0167920589447021,
				-0.11275851726531982,
				0
			]
		},
		{
			"children":[
				0
			],
			"mesh":1,
			"name":"grade2",
			"rotation":[
				0,
				0,
				0.08715573698282242,
				0.9961947202682495
			],
			"scale":[
				0.029385464265942574,
				1.5785703659057617,
				0.9842047691345215
			],
			"translation":[
				1.810962200164795,
				0.2702092230319977,
				-0.0014161855215206742
			]
		},
		{
			"mesh":2,
			"name":"grade3",
			"rotation":[
				0,
				0,
				-0.07157754898071289,
				0.9974351525306702
			],
			"scale":[
				0.10544303059577942,
				5.122706413269043,
				0.021635163575410843
			],
			"translation":[
				0.13390010595321655,
				0.6808367967605591,
				-0.001416098210029304
			]
		},
		{
			"mesh":3,
			"name":"macanetaCopia",
			"rotation":[
				0,
				0,
				-0.03260521590709686,
				0.9994683265686035
			],
			"scale":[
				1.7981760501861572,
				1.3428001403808594,
				1.9539941549301147
			],
			"translation":[
				-1.9583851099014282,
				0.5059154033660889,
				0.005134014878422022
			]
		},
		{
			"mesh":4,
			"name":"Retrovisor.001",
			"scale":[
				1.464821457862854,
				1.464821457862854,
				1.464821457862854
			],
			"translation":[
				-0.8407291173934937,
				0.4269152581691742,
				0.004841453395783901
			]
		},
		{
			"mesh":5,
			"name":"roda.000",
			"rotation":[
				0,
				0.7071068286895752,
				0,
				0.7071067094802856
			],
			"scale":[
				0.20257972180843353,
				0.27624741196632385,
				0.27624741196632385
			],
			"translation":[
				0.404246985912323,
				-0.5250217318534851,
				1.37580406665802
			]
		},
		{
			"mesh":6,
			"name":"roda.001",
			"rotation":[
				0,
				0.7071068286895752,
				0,
				0.7071067094802856
			],
			"scale":[
				0.20257972180843353,
				0.27624741196632385,
				0.27624741196632385
			],
			"translation":[
				-4.130695343017578,
				-0.5250217318534851,
				1.3758049011230469
			]
		},
		{
			"mesh":7,
			"name":"roda.002",
			"rotation":[
				0.7071067094802856,
				0,
				-0.7071068286895752,
				0
			],
			"scale":[
				-0.20257972180843353,
				-0.27624741196632385,
				-0.27624741196632385
			],
			"translation":[
				-4.130695343017578,
				-0.5250217318534851,
				-1.3628307580947876
			]
		},
		{
			"mesh":8,
			"name":"roda.003",
			"rotation":[
				0.7071067094802856,
				0,
				-0.7071068286895752,
				0
			],
			"scale":[
				-0.20257972180843353,
				-0.27624741196632385,
				-0.27624741196632385
			],
			"translation":[
				0.40424659848213196,
				-0.5250217318534851,
				-1.3628300428390503
			]
		},
		{
			"children":[
				1,
				2,
				3,
				4,
				5,
				6,
				7,
				8
			],
			"mesh":9,
			"name":"carr",
			"scale":[
				0.6334846615791321,
				0.6334846615791321,
				0.6334846615791321
			],
			"translation":[
				-0.2610313892364502,
				0.2810716927051544,
				0.0008971318602561951
			]
		}
	],
	"materials":[
		{
			"doubleSided":true,
			"name":"Material.766"
		},
		{
			"doubleSided":true,
			"name":"Alloy.000"
		},
		{
			"doubleSided":true,
			"name":"Material.007"
		},
		{
			"doubleSided":true,
			"name":"Material.008"
		},
		{
			"doubleSided":true,
			"name":"Material.004"
		},
		{
			"doubleSided":true,
			"name":"CARR"
		},
		{
			"doubleSided":true,
			"name":"Material.883",
			"pbrMetallicRoughness":{
				"baseColorFactor":[
					0.800000011920929,
					0.800000011920929,
					0.800000011920929,
					1
				],
				"metallicFactor":0,
				"roughnessFactor":0.5
			}
		},
		{
			"doubleSided":true,
			"name":"Material.003"
		},
		{
			"doubleSided":true,
			"name":"Material.002"
		},
		{
			"doubleSided":true,
			"name":"Material.1009"
		},
		{
			"doubleSided":true,
			"name":"VD"
		},
		{
			"doubleSided":true,
			"name":"GRADES"
		},
		{
			"doubleSided":true,
			"name":"LN"
		},
		{
			"doubleSided":true,
			"name":"Material.005"
		},
		{
			"doubleSided":true,
			"name":"Material.006"
		}
	],
	"meshes":[
		{
			"name":"Cube.001",
			"primitives":[
				{
					"attributes":{
						"POSITION":0,
						"NORMAL":1
					},
					"indices":2,
					"material":0
				},
				{
					"attributes":{
						"POSITION":3,
						"NORMAL":4
					},
					"indices":5,
					"material":1
				}
			]
		},
		{
			"name":"Plane.006",
			"primitives":[
				{
					"attributes":{
						"POSITION":6,
						"NORMAL":7
					},
					"indices":8,
					"material":2
				}
			]
		},
		{
			"name":"Plane.007",
			"primitives":[
				{
					"attributes":{
						"POSITION":9,
						"NORMAL":10
					},
					"indices":11,
					"material":3
				}
			]
		},
		{
			"name":"Circle.007",
			"primitives":[
				{
					"attributes":{
						"POSITION":12,
						"NORMAL":13
					},
					"indices":14,
					"material":4
				},
				{
					"attributes":{
						"POSITION":15,
						"NORMAL":16
					},
					"indices":17,
					"material":1
				}
			]
		},
		{
			"name":"Cube.022",
			"primitives":[
				{
					"attributes":{
						"POSITION":18,
						"NORMAL":19
					},
					"indices":20,
					"material":5
				},
				{
					"attributes":{
						"POSITION":21,
						"NORMAL":22
					},
					"indices":23,
					"material":6
				}
			]
		},
		{
			"name":"Plane.002",
			"primitives":[
				{
					"attributes":{
						"POSITION":24,
						"NORMAL":25
					},
					"indices":26,
					"material":7
				},
				{
					"attributes":{
						"POSITION":27,
						"NORMAL":28
					},
					"indices":29,
					"material":8
				},
				{
					"attributes":{
						"POSITION":30,
						"NORMAL":31
					},
					"indices":32,
					"material":9
				}
			]
		},
		{
			"name":"Plane.003",
			"primitives":[
				{
					"attributes":{
						"POSITION":33,
						"NORMAL":34
					},
					"indices":26,
					"material":7
				},
				{
					"attributes":{
						"POSITION":35,
						"NORMAL":36
					},
					"indices":29,
					"material":8
				},
				{
					"attributes":{
						"POSITION":37,
						"NORMAL":38
					},
					"indices":32,
					"material":9
				}
			]
		},
		{
			"name":"Plane.004",
			"primitives":[
				{
					"attributes":{
						"POSITION":39,
						"NORMAL":40
					},
					"indices":26,
					"material":7
				},
				{
					"attributes":{
						"POSITION":41,
						"NORMAL":42
					},
					"indices":29,
					"material":8
				},
				{
					"attributes":{
						"POSITION":43,
						"NORMAL":44
					},
					"indices":32,
					"material":9
				}
			]
		},
		{
			"name":"Plane.005",
			"primitives":[
				{
					"attributes":{
						"POSITION":45,
						"NORMAL":46
					},
					"indices":26,
					"material":7
				},
				{
					"attributes":{
						"POSITION":47,
						"NORMAL":48
					},
					"indices":29,
					"material":8
				},
				{
					"attributes":{
						"POSITION":49,
						"NORMAL":50
					},
					"indices":32,
					"material":9
				}
			]
		},
		{
			"name":"Circle",
			"primitives":[
				{
					"attributes":{
						"POSITION":51,
						"NORMAL":52
					},
					"indices":53,
					"material":5
				},
				{
					"attributes":{
						"POSITION":54,
						"NORMAL":55
					},
					"indices":56,
					"material":10
				},
				{
					"attributes":{
						"POSITION":57,
						"NORMAL":58
					},
					"indices":59,
					"material":11
				},
				{
					"attributes":{
						"POSITION":60,
						"NORMAL":61
					},
					"indices":62,
					"material":12
				},
				{
					"attributes":{
						"POSITION":63,
						"NORMAL":64
					},
					"indices":65,
					"material":13
				},
				{
					"attributes":{
						"POSITION":66,
						"NORMAL":67
					},
					"indices":68,
					"material":14
				}
			]
		}
	],
	"accessors":[
		{
			"bufferView":0,
			"componentType":5126,
			"count":4,
			"max":[
				0.04228973388671875,
				0.03476531058549881,
				0.04224962368607521
			],
			"min":[
				0.02660667896270752,
				0.009693384170532227,
				0
			],
			"type":"VEC3"
		},
		{
			"bufferView":1,
			"componentType":5126,
			"count":4,
			"type":"VEC3"
		},
		{
			"bufferView":2,
			"componentType":5123,
			"count":6,
			"type":"SCALAR"
		},
		{
			"bufferView":3,
			"componentType":5126,
			"count":36,
			"max":[
				0.046441495418548584,
				0.042225927114486694,
				0.054062336683273315
			],
			"min":[
				0.014836311340332031,
				0.002232767641544342,
				0
			],
			"type":"VEC3"
		},
		{
			"bufferView":4,
			"componentType":5126,
			"count":36,
			"type":"VEC3"
		},
		{
			"bufferView":5,
			"componentType":5123,
			"count":54,
			"type":"SCALAR"
		},
		{
			"bufferView":6,
			"componentType":5126,
			"count":46,
			"max":[
				1,
				0.024719979614019394,
				1
			],
			"min":[
				-7.713639259338379,
				0,
				0
			],
			"type":"VEC3"
		},
		{
			"bufferView":7,
			"componentType":5126,
			"count":46,
			"type":"VEC3"
		},
		{
			"bufferView":8,
			"componentType":5123,
			"count":78,
			"type":"SCALAR"
		},
		{
			"bufferView":9,
			"componentType":5126,
			"count":1691,
			"max":[
				1.2548917531967163,
				0.007735612336546183,
				55.33244323730469
			],
			"min":[
				-2.4660613536834717,
				-0.0047910804860293865,
				0
			],
			"type":"VEC3"
		},
		{
			"bufferView":10,
			"componentType":5126,
			"count":1691,
			"type":"VEC3"
		},
		{
			"bufferView":11,
			"componentType":5123,
			"count":3000,
			"type":"SCALAR"
		},
		{
			"bufferView":12,
			"componentType":5126,
			"count":50,
			"max":[
				0.27865755558013916,
				-0.1080993115901947,
				0.8534026741981506
			],
			"min":[
				-0.8767831921577454,
				-0.20331285893917084,
				0.7901178002357483
			],
			"type":"VEC3"
		},
		{
			"bufferView":13,
			"componentType":5126,
			"count":50,
			"type":"VEC3"
		},
		{
			"bufferView":14,
			"componentType":5123,
			"count":192,
			"type":"SCALAR"
		},
		{
			"bufferView":15,
			"componentType":5126,
			"count":50,
			"max":[
				0.27865755558013916,
				-0.08394650369882584,
				0.8534026741981506
			],
			"min":[
				-0.8767831921577454,
				-0.17383606731891632,
				0.7902049422264099
			],
			"type":"VEC3"
		},
		{
			"bufferView":16,
			"componentType":5126,
			"count":50,
			"type":"VEC3"
		},
		{
			"bufferView":17,
			"componentType":5123,
			"count":192,
			"type":"SCALAR"
		},
		{
			"bufferView":18,
			"componentType":5126,
			"count":115,
			"max":[
				0.2413657307624817,
				0.2388594001531601,
				1.2290915250778198
			],
			"min":[
				0.017353571951389313,
				0.07702506333589554,
				0.9046430587768555
			],
			"type":"VEC3"
		},
		{
			"bufferView":19,
			"componentType":5126,
			"count":115,
			"type":"VEC3"
		},
		{
			"bufferView":20,
			"componentType":5123,
			"count":408,
			"type":"SCALAR"
		},
		{
			"bufferView":21,
			"componentType":5126,
			"count":29,
			"max":[
				0.06027643010020256,
				0.23675546050071716,
				1.2258987426757812
			],
			"min":[
				0.017840944230556488,
				0.0891173854470253,
				0.9737060070037842
			],
			"type":"VEC3"
		},
		{
			"bufferView":22,
			"componentType":5126,
			"count":29,
			"type":"VEC3"
		},
		{
			"bufferView":23,
			"componentType":5123,
			"count":96,
			"type":"SCALAR"
		},
		{
			"bufferView":24,
			"componentType":5126,
			"count":7920,
			"max":[
				1.244027853012085,
				2.295060873031616,
				2.2950632572174072
			],
			"min":[
				-1.244027853012085,
				-2.295062780380249,
				-2.2950620651245117
			],
			"type":"VEC3"
		},
		{
			"bufferView":25,
			"componentType":5126,
			"count":7920,
			"type":"VEC3"
		},
		{
			"bufferView":26,
			"componentType":5123,
			"count":32604,
			"type":"SCALAR"
		},
		{
			"bufferView":27,
			"componentType":5126,
			"count":2802,
			"max":[
				-0.7393450140953064,
				1.7092772722244263,
				1.7092781066894531
			],
			"min":[
				-1.1730400323867798,
				-1.7092790603637695,
				-1.7092804908752441
			],
			"type":"VEC3"
		},
		{
			"bufferView":28,
			"componentType":5126,
			"count":2802,
			"type":"VEC3"
		},
		{
			"bufferView":29,
			"componentType":5123,
			"count":5016,
			"type":"SCALAR"
		},
		{
			"bufferView":30,
			"componentType":5126,
			"count":1856,
			"max":[
				-0.14468702673912048,
				1.210062861442566,
				1.2100616693496704
			],
			"min":[
				-0.2230084240436554,
				-1.2100647687911987,
				-1.210067629814148
			],
			"type":"VEC3"
		},
		{
			"bufferView":31,
			"componentType":5126,
			"count":1856,
			"type":"VEC3"
		},
		{
			"bufferView":32,
			"componentType":5123,
			"count":3960,
			"type":"SCALAR"
		},
		{
			"bufferView":33,
			"componentType":5126,
			"count":7920,
			"max":[
				1.244027853012085,
				2.295060873031616,
				2.2950632572174072
			],
			"min":[
				-1.244027853012085,
				-2.295062780380249,
				-2.2950620651245117
			],
			"type":"VEC3"
		},
		{
			"bufferView":34,
			"componentType":5126,
			"count":7920,
			"type":"VEC3"
		},
		{
			"bufferView":35,
			"componentType":5126,
			"count":2802,
			"max":[
				-0.7393450140953064,
				1.7092772722244263,
				1.7092781066894531
			],
			"min":[
				-1.1730400323867798,
				-1.7092790603637695,
				-1.7092804908752441
			],
			"type":"VEC3"
		},
		{
			"bufferView":36,
			"componentType":5126,
			"count":2802,
			"type":"VEC3"
		},
		{
			"bufferView":37,
			"componentType":5126,
			"count":1856,
			"max":[
				-0.14468702673912048,
				1.210062861442566,
				1.2100616693496704
			],
			"min":[
				-0.2230084240436554,
				-1.2100647687911987,
				-1.210067629814148
			],
			"type":"VEC3"
		},
		{
			"bufferView":38,
			"componentType":5126,
			"count":1856,
			"type":"VEC3"
		},
		{
			"bufferView":39,
			"componentType":5126,
			"count":7920,
			"max":[
				1.244027853012085,
				2.295060873031616,
				2.2950632572174072
			],
			"min":[
				-1.244027853012085,
				-2.295062780380249,
				-2.2950620651245117
			],
			"type":"VEC3"
		},
		{
			"bufferView":40,
			"componentType":5126,
			"count":7920,
			"type":"VEC3"
		},
		{
			"bufferView":41,
			"componentType":5126,
			"count":2802,
			"max":[
				-0.7393450140953064,
				1.7092772722244263,
				1.7092781066894531
			],
			"min":[
				-1.1730400323867798,
				-1.7092790603637695,
				-1.7092804908752441
			],
			"type":"VEC3"
		},
		{
			"bufferView":42,
			"componentType":5126,
			"count":2802,
			"type":"VEC3"
		},
		{
			"bufferView":43,
			"componentType":5126,
			"count":1856,
			"max":[
				-0.14468702673912048,
				1.210062861442566,
				1.2100616693496704
			],
			"min":[
				-0.2230084240436554,
				-1.2100647687911987,
				-1.210067629814148
			],
			"type":"VEC3"
		},
		{
			"bufferView":44,
			"componentType":5126,
			"count":1856,
			"type":"VEC3"
		},
		{
			"bufferView":45,
			"componentType":5126,
			"count":7920,
			"max":[
				1.244027853012085,
				2.295060873031616,
				2.2950632572174072
			],
			"min":[
				-1.244027853012085,
				-2.295062780380249,
				-2.2950620651245117
			],
			"type":"VEC3"
		},
		{
			"bufferView":46,
			"componentType":5126,
			"count":7920,
			"type":"VEC3"
		},
		{
			"bufferView":47,
			"componentType":5126,
			"count":2802,
			"max":[
				-0.7393450140953064,
				1.7092772722244263,
				1.7092781066894531
			],
			"min":[
				-1.1730400323867798,
				-1.7092790603637695,
				-1.7092804908752441
			],
			"type":"VEC3"
		},
		{
			"bufferView":48,
			"componentType":5126,
			"count":2802,
			"type":"VEC3"
		},
		{
			"bufferView":49,
			"componentType":5126,
			"count":1856,
			"max":[
				-0.14468702673912048,
				1.210062861442566,
				1.2100616693496704
			],
			"min":[
				-0.2230084240436554,
				-1.2100647687911987,
				-1.210067629814148
			],
			"type":"VEC3"
		},
		{
			"bufferView":50,
			"componentType":5126,
			"count":1856,
			"type":"VEC3"
		},
		{
			"bufferView":51,
			"componentType":5126,
			"count":1001,
			"max":[
				1.9928628206253052,
				1.452646017074585,
				1.6674200296401978
			],
			"min":[
				-5.782957077026367,
				-0.8715305328369141,
				0
			],
			"type":"VEC3"
		},
		{
			"bufferView":52,
			"componentType":5126,
			"count":1001,
			"type":"VEC3"
		},
		{
			"bufferView":53,
			"componentType":5123,
			"count":5181,
			"type":"SCALAR"
		},
		{
			"bufferView":54,
			"componentType":5126,
			"count":219,
			"max":[
				1.787247896194458,
				1.269781231880188,
				1.47089684009552
			],
			"min":[
				-4.834895610809326,
				-0.5240845084190369,
				0
			],
			"type":"VEC3"
		},
		{
			"bufferView":55,
			"componentType":5126,
			"count":219,
			"type":"VEC3"
		},
		{
			"bufferView":56,
			"componentType":5123,
			"count":1002,
			"type":"SCALAR"
		},
		{
			"bufferView":57,
			"componentType":5126,
			"count":103,
			"max":[
				1.9145514965057373,
				0.45753389596939087,
				1.0611809492111206
			],
			"min":[
				-5.58909273147583,
				-0.98192298412323,
				0
			],
			"type":"VEC3"
		},
		{
			"bufferView":58,
			"componentType":5126,
			"count":103,
			"type":"VEC3"
		},
		{
			"bufferView":59,
			"componentType":5123,
			"count":228,
			"type":"SCALAR"
		},
		{
			"bufferView":60,
			"componentType":5126,
			"count":40,
			"max":[
				-4.691603183746338,
				0.5015310049057007,
				1.482872486114502
			],
			"min":[
				-5.499305725097656,
				0.22572492063045502,
				0.666832685470581
			],
			"type":"VEC3"
		},
		{
			"bufferView":61,
			"componentType":5126,
			"count":40,
			"type":"VEC3"
		},
		{
			"bufferView":62,
			"componentType":5123,
			"count":174,
			"type":"SCALAR"
		},
		{
			"bufferView":63,
			"componentType":5126,
			"count":72,
			"max":[
				0.30634263157844543,
				1.2830232381820679,
				1.2377256155014038
			],
			"min":[
				-1.4085735082626343,
				0.6757053732872009,
				0
			],
			"type":"VEC3"
		},
		{
			"bufferView":64,
			"componentType":5126,
			"count":72,
			"type":"VEC3"
		},
		{
			"bufferView":65,
			"componentType":5123,
			"count":330,
			"type":"SCALAR"
		},
		{
			"bufferView":66,
			"componentType":5126,
			"count":116,
			"max":[
				1.7153842449188232,
				0.3093646466732025,
				1.47089684009552
			],
			"min":[
				1.0033094882965088,
				0.012899216264486313,
				0.9683142900466919
			],
			"type":"VEC3"
		},
		{
			"bufferView":67,
			"componentType":5126,
			"count":116,
			"type":"VEC3"
		},
		{
			"bufferView":68,
			"componentType":5123,
			"count":594,
			"type":"SCALAR"
		}
	],
	"bufferViews":[
		{
			"buffer":0,
			"byteLength":48,
			"byteOffset":0,
			"target":34962
		},
		{
			"buffer":0,
			"byteLength":48,
			"byteOffset":48,
			"target":34962
		},
		{
			"buffer":0,
			"byteLength":12,
			"byteOffset":96,
			"target":34963
		},
		{
			"buffer":0,
			"byteLength":432,
			"byteOffset":108,
			"target":34962
		},
		{
			"buffer":0,
			"byteLength":432,
			"byteOffset":540,
			"target":34962
		},
		{
			"buffer":0,
			"byteLength":108,
			"byteOffset":972,
			"target":34963
		},
		{
			"buffer":0,
			"byteLength":552,
			"byteOffset":1080,
			"target":34962
		},
		{
			"buffer":0,
			"byteLength":552,
			"byteOffset":1632,
			"target":34962
		},
		{
			"buffer":0,
			"byteLength":156,
			"byteOffset":2184,
			"target":34963
		},
		{
			"buffer":0,
			"byteLength":20292,
			"byteOffset":2340,
			"target":34962
		},
		{
			"buffer":0,
			"byteLength":20292,
			"byteOffset":22632,
			"target":34962
		},
		{
			"buffer":0,
			"byteLength":6000,
			"byteOffset":42924,
			"target":34963
		},
		{
			"buffer":0,
			"byteLength":600,
			"byteOffset":48924,
			"target":34962
		},
		{
			"buffer":0,
			"byteLength":600,
			"byteOffset":49524,
			"target":34962
		},
		{
			"buffer":0,
			"byteLength":384,
			"byteOffset":50124,
			"target":34963
		},
		{
			"buffer":0,
			"byteLength":600,
			"byteOffset":50508,
			"target":34962
		},
		{
			"buffer":0,
			"byteLength":600,
			"byteOffset":51108,
			"target":34962
		},
		{
			"buffer":0,
			"byteLength":384,
			"byteOffset":51708,
			"target":34963
		},
		{
			"buffer":0,
			"byteLength":1380,
			"byteOffset":52092,
			"target":34962
		},
		{
			"buffer":0,
			"byteLength":1380,
			"byteOffset":53472,
			"target":34962
		},
		{
			"buffer":0,
			"byteLength":816,
			"byteOffset":54852,
			"target":34963
		},
		{
			"buffer":0,
			"byteLength":348,
			"byteOffset":55668,
			"target":34962
		},
		{
			"buffer":0,
			"byteLength":348,
			"byteOffset":56016,
			"target":34962
		},
		{
			"buffer":0,
			"byteLength":192,
			"byteOffset":56364,
			"target":34963
		},
		{
			"buffer":0,
			"byteLength":95040,
			"byteOffset":56556,
			"target":34962
		},
		{
			"buffer":0,
			"byteLength":95040,
			"byteOffset":151596,
			"target":34962
		},
		{
			"buffer":0,
			"byteLength":65208,
			"byteOffset":246636,
			"target":34963
		},
		{
			"buffer":0,
			"byteLength":33624,
			"byteOffset":311844,
			"target":34962
		},
		{
			"buffer":0,
			"byteLength":33624,
			"byteOffset":345468,
			"target":34962
		},
		{
			"buffer":0,
			"byteLength":10032,
			"byteOffset":379092,
			"target":34963
		},
		{
			"buffer":0,
			"byteLength":22272,
			"byteOffset":389124,
			"target":34962
		},
		{
			"buffer":0,
			"byteLength":22272,
			"byteOffset":411396,
			"target":34962
		},
		{
			"buffer":0,
			"byteLength":7920,
			"byteOffset":433668,
			"target":34963
		},
		{
			"buffer":0,
			"byteLength":95040,
			"byteOffset":441588,
			"target":34962
		},
		{
			"buffer":0,
			"byteLength":95040,
			"byteOffset":536628,
			"target":34962
		},
		{
			"buffer":0,
			"byteLength":33624,
			"byteOffset":631668,
			"target":34962
		},
		{
			"buffer":0,
			"byteLength":33624,
			"byteOffset":665292,
			"target":34962
		},
		{
			"buffer":0,
			"byteLength":22272,
			"byteOffset":698916,
			"target":34962
		},
		{
			"buffer":0,
			"byteLength":22272,
			"byteOffset":721188,
			"target":34962
		},
		{
			"buffer":0,
			"byteLength":95040,
			"byteOffset":743460,
			"target":34962
		},
		{
			"buffer":0,
			"byteLength":95040,
			"byteOffset":838500,
			"target":34962
		},
		{
			"buffer":0,
			"byteLength":33624,
			"byteOffset":933540,
			"target":34962
		},
		{
			"buffer":0,
			"byteLength":33624,
			"byteOffset":967164,
			"target":34962
		},
		{
			"buffer":0,
			"byteLength":22272,
			"byteOffset":1000788,
			"target":34962
		},
		{
			"buffer":0,
			"byteLength":22272,
			"byteOffset":1023060,
			"target":34962
		},
		{
			"buffer":0,
			"byteLength":95040,
			"byteOffset":1045332,
			"target":34962
		},
		{
			"buffer":0,
			"byteLength":95040,
			"byteOffset":1140372,
			"target":34962
		},
		{
			"buffer":0,
			"byteLength":33624,
			"byteOffset":1235412,
			"target":34962
		},
		{
			"buffer":0,
			"byteLength":33624,
			"byteOffset":1269036,
			"target":34962
		},
		{
			"buffer":0,
			"byteLength":22272,
			"byteOffset":1302660,
			"target":34962
		},
		{
			"buffer":0,
			"byteLength":22272,
			"byteOffset":1324932,
			"target":34962
		},
		{
			"buffer":0,
			"byteLength":12012,
			"byteOffset":1347204,
			"target":34962
		},
		{
			"buffer":0,
			"byteLength":12012,
			"byteOffset":1359216,
			"target":34962
		},
		{
			"buffer":0,
			"byteLength":10362,
			"byteOffset":1371228,
			"target":34963
		},
		{
			"buffer":0,
			"byteLength":2628,
			"byteOffset":1381592,
			"target":34962
		},
		{
			"buffer":0,
			"byteLength":2628,
			"byteOffset":1384220,
			"target":34962
		},
		{
			"buffer":0,
			"byteLength":2004,
			"byteOffset":1386848,
			"target":34963
		},
		{
			"buffer":0,
			"byteLength":1236,
			"byteOffset":1388852,
			"target":34962
		},
		{
			"buffer":0,
			"byteLength":1236,
			"byteOffset":1390088,
			"target":34962
		},
		{
			"buffer":0,
			"byteLength":456,
			"byteOffset":1391324,
			"target":34963
		},
		{
			"buffer":0,
			"byteLength":480,
			"byteOffset":1391780,
			"target":34962
		},
		{
			"buffer":0,
			"byteLength":480,
			"byteOffset":1392260,
			"target":34962
		},
		{
			"buffer":0,
			"byteLength":348,
			"byteOffset":1392740,
			"target":34963
		},
		{
			"buffer":0,
			"byteLength":864,
			"byteOffset":1393088,
			"target":34962
		},
		{
			"buffer":0,
			"byteLength":864,
			"byteOffset":1393952,
			"target":34962
		},
		{
			"buffer":0,
			"byteLength":660,
			"byteOffset":1394816,
			"target":34963
		},
		{
			"buffer":0,
			"byteLength":1392,
			"byteOffset":1395476,
			"target":34962
		},
		{
			"buffer":0,
			"byteLength":1392,
			"byteOffset":1396868,
			"target":34962
		},
		{
			"buffer":0,
			"byteLength":1188,
			"byteOffset":1398260,
			"target":34963
		}
	],
	"buffers":[
		{
			"byteLength":1399448,
			"uri":"data:application/octet-stream;base64,"
		}
	]
}
